<?xml version="1.0" standalone="no"?>
<!DOCTYPE svg PUBLIC "-//W3C//DTD SVG 20010904//EN"
 "http://www.w3.org/TR/2001/REC-SVG-20010904/DTD/svg10.dtd">
<svg version="1.0" xmlns="http://www.w3.org/2000/svg"
 width="448.000000pt" height="448.000000pt" viewBox="0 0 448.000000 448.000000"
 preserveAspectRatio="xMidYMid meet">
<metadata>
Created by potrace 1.14, written by Peter Selinger 2001-2017
</metadata>
<g transform="translate(0.000000,448.000000) scale(0.100000,-0.100000)"
fill="#000000" stroke="none">
<path d="M2208 4409 c-96 -15 -235 -115 -306 -221 -13 -21 -29 -35 -35 -31 -6
3 -7 1 -3 -6 4 -6 -6 -33 -21 -59 -41 -66 -101 -194 -133 -280 -14 -40 -30
-69 -35 -65 -4 5 -5 3 -2 -3 3 -6 -7 -55 -24 -110 -16 -54 -31 -110 -34 -123
-2 -13 -5 -25 -7 -26 -2 -2 -28 5 -58 16 -30 11 -62 22 -70 24 -8 2 -41 13
-72 24 -32 11 -58 17 -58 14 0 -3 -7 0 -15 7 -8 7 -15 9 -15 6 0 -4 -8 -2 -17
3 -10 5 -31 11 -48 14 -16 3 -64 12 -105 20 -251 49 -439 38 -570 -35 -113
-63 -164 -155 -164 -298 0 -81 7 -126 28 -185 4 -11 14 -37 21 -59 8 -21 12
-43 8 -49 -3 -6 -1 -7 5 -3 6 3 15 -9 23 -31 7 -21 21 -50 31 -64 10 -14 20
-35 21 -47 0 -11 3 -19 6 -17 8 9 61 -87 55 -98 -4 -7 -4 -9 1 -5 4 4 16 -4
27 -18 17 -21 18 -27 6 -42 -12 -15 -11 -16 4 -4 14 11 18 10 29 -10 7 -13 15
-25 18 -28 3 -3 19 -23 36 -45 16 -22 33 -44 37 -50 4 -5 33 -39 65 -74 32
-35 57 -70 57 -78 -1 -7 2 -10 7 -7 10 6 89 -70 89 -86 0 -5 4 -9 9 -8 5 2 18
-6 28 -17 19 -20 18 -21 -80 -120 -138 -139 -272 -308 -357 -450 -46 -77 -120
-226 -120 -241 0 -9 -5 -12 -12 -8 -6 4 -8 3 -4 -4 3 -6 1 -23 -5 -39 -6 -15
-13 -39 -16 -53 -2 -14 -8 -41 -12 -60 -9 -42 -7 -167 3 -195 21 -59 58 -126
71 -131 8 -4 12 -10 9 -15 -3 -5 2 -9 10 -9 9 0 16 -4 16 -10 0 -5 6 -10 13
-10 7 0 23 -9 35 -20 12 -11 27 -20 33 -20 15 0 82 -23 89 -30 18 -18 351 -13
382 6 4 3 8 -1 8 -8 0 -10 2 -10 8 -1 4 7 26 14 47 17 22 2 47 6 55 10 19 7
68 17 95 19 11 1 22 5 25 8 3 3 25 11 50 18 56 15 61 16 80 24 46 20 99 35
104 30 3 -4 6 -1 6 6 0 8 8 11 20 8 11 -3 18 -1 14 4 -3 5 0 9 5 9 6 0 12 -8
13 -17 1 -10 2 -25 3 -33 1 -8 7 -25 14 -38 7 -13 10 -30 7 -37 -3 -8 -1 -15
5 -17 5 -2 10 -18 12 -36 1 -17 5 -32 8 -32 3 0 12 -19 19 -43 8 -23 24 -67
37 -96 13 -30 21 -62 18 -70 -3 -9 -3 -12 1 -9 9 10 84 -144 77 -156 -3 -5 -1
-6 5 -2 7 4 12 1 12 -7 0 -8 7 -20 15 -27 9 -7 13 -20 10 -29 -3 -8 -3 -12 1
-8 4 4 23 -16 42 -45 41 -60 81 -102 146 -151 25 -20 42 -37 38 -40 -4 -2 -1
-2 5 -1 7 2 32 -6 55 -16 24 -11 56 -20 71 -20 20 0 26 -4 21 -13 -5 -8 -2 -8
9 2 9 7 17 11 17 9 0 -20 167 39 198 69 8 7 18 10 24 7 7 -4 8 -2 4 4 -4 7 6
20 26 32 18 11 29 20 24 20 -6 0 -1 8 10 19 31 29 59 65 79 99 10 17 23 28 28
25 6 -3 7 -1 3 5 -6 10 29 81 47 93 5 3 8 9 8 13 0 3 13 36 30 73 52 112 129
327 129 359 0 8 4 14 10 14 5 0 6 8 3 17 -5 13 -2 15 13 10 17 -6 17 -5 3 5
-16 11 -14 27 6 66 3 5 65 -20 65 -27 0 -4 8 -7 18 -8 23 -2 36 -6 100 -30 24
-9 23 -9 65 -17 20 -5 37 -12 37 -16 0 -5 10 -6 22 -2 16 4 19 2 13 -8 -5 -8
-4 -11 3 -6 6 3 32 1 59 -5 76 -17 200 -35 288 -42 22 -2 47 -7 54 -12 9 -5
12 -4 8 2 -5 7 17 11 61 12 38 0 90 7 117 15 27 9 53 12 58 9 6 -3 7 -1 3 5
-4 7 -1 12 9 12 17 0 51 20 106 62 20 15 40 24 44 20 5 -4 5 -1 1 6 -5 8 -1
21 7 30 8 9 18 27 22 40 3 12 9 20 13 18 4 -2 8 12 9 33 3 45 6 63 16 79 5 6
4 12 -2 12 -5 0 -8 8 -7 17 12 63 -40 256 -97 358 -6 11 -27 49 -47 85 -20 36
-60 101 -90 145 -29 43 -53 85 -53 92 0 6 -3 10 -7 8 -4 -2 -34 31 -68 73 -34
43 -102 119 -152 169 -49 50 -90 96 -90 102 0 6 -3 10 -7 9 -27 -9 -1 25 85
112 80 81 101 97 112 87 12 -10 12 -9 2 4 -10 14 -7 22 19 50 18 19 43 51 57
71 13 21 29 35 33 32 5 -3 8 -1 7 4 -4 11 98 163 104 157 3 -3 5 1 5 8 0 6 23
52 51 102 29 49 52 95 52 103 0 7 5 10 12 6 7 -4 8 -3 4 4 -4 6 -1 22 6 34 7
13 13 25 14 28 0 3 4 12 7 20 11 25 37 133 37 152 0 10 6 18 13 18 8 0 7 4 -3
10 -13 9 -13 10 0 10 12 0 12 2 2 9 -17 11 -17 21 0 32 7 5 8 9 2 9 -6 0 -11
16 -11 35 0 55 -33 139 -72 182 -111 122 -302 160 -601 118 -70 -9 -269 -60
-361 -91 -57 -19 -109 -36 -116 -38 -7 -1 -16 -5 -19 -9 -17 -17 -24 -6 -39
63 -1 3 -9 32 -19 65 -10 33 -19 65 -21 70 -1 6 -5 19 -9 30 -5 11 -14 37 -22
58 -8 21 -12 43 -9 48 4 5 3 9 -2 9 -4 0 -14 15 -22 33 -8 17 -31 68 -52 111
-21 44 -35 84 -32 90 3 6 3 8 -2 4 -7 -7 -60 65 -82 112 -7 14 -51 66 -100
116 -23 23 -107 84 -117 84 -2 0 -17 5 -33 12 -53 21 -96 26 -155 17z m132
-139 c36 -18 60 -41 54 -51 -3 -5 1 -6 9 -3 8 2 22 -7 33 -22 10 -14 31 -39
47 -54 15 -16 27 -33 27 -39 0 -6 5 -11 12 -11 6 0 8 -3 5 -7 -4 -3 2 -13 14
-21 11 -8 18 -20 15 -29 -3 -8 -2 -12 3 -9 11 7 23 -22 15 -35 -3 -5 0 -8 8
-7 7 2 12 -3 10 -9 -1 -7 2 -13 7 -13 11 0 93 -166 128 -260 37 -96 73 -221
68 -231 -3 -4 -1 -10 5 -14 14 -8 13 -25 -2 -25 -14 0 -161 -75 -333 -170 -71
-40 -136 -72 -142 -73 -7 0 -13 -4 -13 -8 0 -5 -12 -15 -27 -23 -27 -13 -33
-11 -128 43 -128 73 -247 137 -361 195 -88 44 -90 46 -86 76 2 16 9 30 15 30
6 0 8 3 5 6 -4 3 -2 20 3 37 6 18 12 42 15 53 2 12 11 39 21 60 9 22 17 44 19
49 6 32 48 114 55 109 5 -3 6 1 3 9 -2 7 7 36 21 63 48 92 75 138 90 154 8 9
15 20 15 23 0 17 113 142 127 141 7 -1 10 3 7 8 -10 16 80 73 99 61 5 -3 7 -1
3 5 -14 24 85 18 134 -8z m-1330 -760 c0 -3 16 -4 36 -2 24 3 39 0 45 -9 5 -9
9 -10 9 -2 0 6 8 10 18 8 9 -2 55 -11 102 -20 47 -9 90 -21 96 -26 6 -5 13 -6
16 -3 10 9 89 -16 83 -26 -3 -6 1 -7 9 -4 19 7 88 -15 81 -25 -2 -5 7 -6 20
-3 15 2 25 0 25 -7 0 -7 5 -9 10 -6 6 3 10 1 10 -5 0 -6 5 -8 11 -4 7 4 9 0 6
-12 -3 -11 -9 -39 -12 -64 -3 -25 -8 -52 -10 -60 -2 -8 -7 -43 -10 -78 -4 -35
-8 -71 -10 -80 -1 -9 -6 -51 -10 -92 -4 -41 -9 -82 -10 -90 -4 -20 -16 -161
-20 -222 -1 -27 -6 -53 -11 -57 -5 -4 -36 -29 -69 -56 -33 -27 -116 -99 -184
-159 l-123 -109 -72 74 c-114 116 -266 304 -266 328 0 5 -4 11 -8 13 -12 4
-95 149 -95 165 0 7 -6 14 -14 17 -7 3 -13 10 -13 17 0 6 -13 39 -30 73 -16
34 -36 88 -44 119 -8 32 -18 61 -21 67 -3 5 -8 33 -11 62 -3 29 -7 58 -9 65
-2 7 0 15 4 18 5 3 7 13 4 24 -3 10 3 33 12 51 19 36 55 79 55 65 0 -4 9 0 20
10 10 9 26 15 34 12 9 -4 19 1 24 10 7 11 20 14 45 11 20 -2 34 -1 31 3 -2 4
10 9 28 11 57 5 218 4 218 -2z m2781 -10 c65 -16 99 -31 99 -43 0 -6 3 -7 6
-4 15 15 70 -70 74 -113 5 -58 0 -121 -10 -115 -6 3 -7 -1 -4 -10 9 -22 -26
-146 -39 -138 -6 3 -7 1 -3 -6 10 -15 -15 -82 -27 -74 -6 3 -7 1 -3 -5 6 -11
-67 -167 -105 -222 -9 -14 -33 -51 -54 -82 -21 -33 -42 -55 -48 -51 -6 3 -7 1
-3 -5 9 -15 -79 -125 -193 -243 l-89 -91 -43 39 c-24 21 -59 52 -79 69 -96 86
-215 184 -222 184 -5 0 -6 5 -3 10 3 6 -1 10 -9 10 -21 0 -26 12 -31 77 -2 32
-7 81 -10 108 -21 199 -29 287 -29 327 -1 20 -4 34 -7 32 -3 -2 -7 9 -7 24 -1
15 -4 38 -6 52 -2 14 -7 50 -11 80 -4 30 -10 59 -13 64 -3 5 0 6 6 2 7 -4 12
-2 12 4 0 7 7 9 16 6 8 -3 13 -2 10 2 -5 8 91 43 124 47 9 0 20 4 26 7 6 4 21
9 35 12 13 3 50 12 81 19 39 10 55 11 51 3 -4 -6 1 -5 10 3 10 8 40 14 67 15
28 1 50 5 50 9 0 5 22 7 49 5 27 -1 47 0 45 4 -7 11 237 1 287 -12z m-957
-176 c4 -10 2 -13 -7 -8 -9 6 -9 5 0 -7 12 -15 27 -94 38 -199 3 -30 9 -71 11
-90 9 -58 12 -90 19 -204 6 -92 5 -107 -6 -97 -8 7 -81 60 -164 117 -82 58
-158 111 -168 119 -9 8 -19 15 -22 15 -15 0 -114 74 -109 81 3 5 -1 7 -8 4 -7
-3 -25 3 -40 13 l-28 18 90 53 c50 28 95 49 102 45 6 -4 8 -3 5 2 -8 14 110
77 125 68 7 -4 10 -4 6 1 -4 4 4 14 18 22 21 10 30 11 43 1 14 -10 14 -10 3 2
-11 12 -5 18 35 36 26 12 49 23 49 23 1 1 5 -6 8 -15z m-999 -60 c72 -36 132
-69 135 -72 3 -4 12 -8 20 -10 8 -2 22 -10 31 -18 8 -8 21 -14 28 -14 7 0 9
-4 6 -10 -3 -5 0 -7 8 -4 8 3 20 -2 27 -11 7 -8 18 -15 25 -15 7 0 18 -6 24
-14 10 -12 7 -18 -16 -32 -15 -10 -86 -56 -156 -103 -70 -47 -135 -90 -145
-96 -9 -5 -25 -18 -35 -27 -11 -10 -24 -15 -29 -12 -4 3 -8 1 -8 -4 0 -5 -32
-33 -71 -61 l-71 -52 7 103 c8 133 12 165 31 313 4 28 6 58 6 68 0 9 2 16 6
13 4 -2 7 13 8 33 1 53 12 91 27 91 7 0 71 -30 142 -66z m442 -255 c6 -6 22
-17 35 -23 12 -7 22 -18 21 -24 -2 -6 3 -9 10 -6 7 2 22 -5 34 -16 12 -11 25
-20 28 -20 10 0 180 -120 216 -152 10 -10 22 -18 27 -19 4 -1 6 -5 4 -11 -1
-5 2 -7 7 -3 13 7 97 -53 93 -67 -1 -5 1 -7 6 -4 5 3 26 -7 48 -21 52 -35 50
-33 34 -44 -12 -9 -11 -10 4 -5 10 4 28 0 40 -7 19 -13 21 -24 21 -98 0 -46
-4 -89 -8 -96 -4 -6 -3 -14 1 -17 10 -6 9 -86 -1 -103 -4 -6 -3 -14 1 -17 10
-6 9 -86 -1 -103 -4 -6 -3 -14 1 -17 10 -6 9 -92 -1 -102 -3 -4 -3 -12 1 -18
3 -6 7 -35 7 -64 1 -47 -3 -56 -26 -73 -14 -10 -29 -16 -33 -14 -3 3 -4 2 -1
-1 5 -7 -70 -64 -84 -64 -5 0 -11 -4 -13 -8 -1 -5 -32 -29 -66 -53 -35 -24
-83 -57 -107 -74 -24 -16 -100 -70 -170 -118 -69 -48 -132 -90 -140 -93 -14
-6 -115 59 -345 221 -58 41 -142 99 -187 130 -140 96 -127 72 -128 258 -1 89
3 170 8 181 5 11 5 16 0 13 -11 -7 -11 158 -1 169 4 4 4 12 1 18 -11 17 -12
35 -2 42 5 3 6 11 2 17 -17 27 -9 69 17 85 14 9 27 19 30 23 3 3 41 30 85 60
44 29 89 62 100 72 10 9 25 15 32 13 7 -3 12 -2 10 2 -1 4 2 8 7 9 5 1 12 6
15 11 8 13 80 67 166 125 39 25 93 62 120 81 55 38 65 42 82 25z m-793 -544
c-17 -13 -17 -14 -1 -9 19 7 21 -15 2 -28 -6 -5 -6 -8 1 -8 6 0 10 -12 8 -27
-4 -32 -5 -233 -1 -341 1 -39 0 -72 -2 -72 -3 0 -154 123 -177 145 -6 5 -30
25 -52 44 -23 19 -39 39 -35 44 3 6 1 7 -4 4 -6 -4 -16 -1 -22 6 -8 10 2 25
46 63 31 27 64 57 74 68 10 10 23 15 30 11 7 -5 10 -4 6 2 -6 9 52 64 67 64 3
0 19 14 36 31 17 17 34 28 37 24 4 -3 -2 -13 -13 -21z m1616 -45 c0 -6 5 -10
11 -10 6 0 16 -6 24 -12 7 -7 34 -30 59 -51 25 -22 44 -43 41 -48 -4 -5 0 -6
7 -4 8 3 28 -10 47 -29 l33 -34 -99 -84 c-98 -84 -179 -149 -199 -161 -11 -6
-12 163 0 181 3 6 3 13 -1 15 -9 6 -9 130 0 144 3 5 2 15 -2 22 -5 7 -5 28 -1
47 4 19 5 34 1 34 -3 0 -6 13 -7 29 l-1 30 43 -30 c24 -16 44 -34 44 -39z
m-1874 -347 c58 -51 68 -59 138 -117 19 -16 33 -33 30 -38 -3 -5 -2 -7 3 -6
14 4 54 -23 48 -32 -4 -6 1 -7 11 -3 13 5 16 3 11 -10 -4 -11 -2 -14 7 -11 24
9 26 -1 41 -180 3 -39 8 -72 10 -74 3 -3 0 -11 -6 -19 -6 -7 -7 -13 -2 -13 5
0 10 -6 10 -12 3 -54 17 -180 27 -246 15 -93 18 -120 21 -155 1 -21 5 -41 9
-44 14 -15 1 -23 -81 -53 -130 -47 -307 -87 -415 -95 -25 -1 -50 -5 -55 -8
-10 -6 -260 -1 -288 6 -115 29 -163 57 -189 111 -27 56 -22 187 8 225 8 11 8
13 -1 8 -7 -5 -9 0 -6 13 3 11 10 17 16 13 6 -3 7 -1 3 5 -8 13 28 125 54 167
10 17 19 35 19 40 2 23 106 193 115 188 5 -3 6 -1 2 5 -7 12 80 141 121 180
13 12 21 22 18 22 -4 0 0 6 7 14 7 7 39 43 72 79 32 37 62 64 67 61 5 -3 8 -1
7 4 -2 5 12 24 30 41 l32 32 24 -23 c13 -13 50 -46 82 -75z m2189 66 c-4 -5
-1 -9 6 -9 17 0 69 -50 69 -67 0 -7 6 -12 13 -10 6 1 11 -5 11 -14 -1 -9 6
-16 15 -15 9 1 15 -6 15 -16 -1 -10 2 -16 6 -13 4 3 25 -17 46 -43 21 -26 41
-49 45 -52 3 -3 36 -49 73 -102 78 -113 189 -325 182 -345 -3 -8 -2 -12 3 -9
11 7 23 -22 15 -35 -3 -5 -1 -9 5 -9 8 0 24 -51 23 -77 0 -5 3 -12 8 -18 11
-15 23 -93 21 -145 -1 -49 -19 -103 -31 -95 -4 3 -7 -3 -6 -12 2 -27 -82 -72
-164 -87 -75 -15 -290 -15 -375 -1 -152 24 -305 64 -432 111 -44 16 -43 11
-28 92 10 52 17 107 30 222 3 19 7 58 10 85 15 123 25 227 30 310 2 22 3 45 4
51 0 6 27 31 59 55 31 24 59 46 62 49 51 52 124 109 132 104 6 -4 8 -2 5 3 -4
6 15 28 41 49 26 21 54 46 62 55 11 13 19 15 32 8 10 -6 16 -14 13 -20z
m-1750 -422 c17 -14 147 -105 205 -144 30 -21 60 -41 65 -46 25 -21 148 -97
156 -97 5 0 9 -4 9 -10 0 -5 6 -10 13 -10 6 0 20 -6 29 -14 15 -11 10 -17 -47
-50 -35 -21 -67 -37 -71 -36 -4 1 -10 -3 -13 -9 -4 -5 -78 -46 -166 -91 -177
-89 -173 -89 -178 -1 -1 28 -6 51 -10 51 -5 0 -7 6 -4 13 2 6 1 24 -4 38 -4
17 -3 32 4 39 9 10 9 11 0 6 -9 -5 -13 2 -14 21 -1 15 -2 39 -4 53 -1 14 -6
59 -9 100 -4 41 -9 86 -12 98 -3 17 -1 21 7 16 8 -5 9 -3 3 7 -5 8 -10 36 -12
63 l-3 50 23 -20 c12 -10 27 -23 33 -27z m1230 -52 c-5 -93 -9 -137 -20 -240
-15 -123 -26 -198 -33 -220 -3 -11 -6 -30 -7 -43 -1 -12 -4 -24 -7 -27 -7 -7
-348 167 -343 175 2 4 -2 7 -9 7 -7 0 -38 15 -69 34 l-57 34 37 22 c30 18 40
20 52 10 14 -11 14 -10 2 5 -11 16 -10 19 10 28 31 13 62 33 70 44 4 5 12 5
19 1 9 -5 11 -4 6 3 -6 11 6 16 26 13 5 0 7 3 5 8 -1 5 3 10 8 12 6 1 15 9 21
17 7 9 18 13 28 9 11 -4 15 -3 10 4 -10 17 18 30 36 16 13 -10 13 -10 1 5 -12
16 -10 19 10 27 13 5 34 19 46 30 12 12 27 21 33 21 5 0 10 3 10 8 0 4 25 23
55 42 30 19 54 38 55 43 0 4 2 7 5 7 2 0 2 -43 0 -95z m-610 -360 c16 -1 65
-28 65 -36 0 -4 11 -10 25 -13 16 -4 23 -11 19 -18 -4 -6 -3 -8 3 -5 6 4 43
-11 83 -33 40 -22 125 -66 189 -98 63 -31 121 -62 127 -68 12 -11 -14 -115
-65 -257 -33 -95 -132 -287 -144 -280 -6 3 -7 1 -3 -5 8 -13 -32 -75 -98 -157
-37 -46 -52 -61 -111 -114 -28 -26 -107 -51 -140 -45 -69 12 -176 100 -242
198 -15 22 -31 43 -35 44 -5 2 -8 8 -8 12 0 5 -11 26 -25 46 -26 39 -111 209
-117 234 -2 8 -6 17 -9 20 -12 10 -76 206 -74 227 1 12 -2 20 -7 17 -4 -3 -8
6 -8 20 0 14 -1 29 -2 32 -5 9 285 154 295 147 6 -3 7 -1 3 5 -4 7 3 14 19 18
14 3 25 10 25 14 0 4 15 13 33 21 17 7 34 15 37 19 3 3 30 18 60 34 30 16 59
33 65 38 6 5 14 4 20 -4 5 -7 15 -13 20 -13z"/>
<path d="M913 3485 c0 -8 4 -12 9 -9 5 3 6 10 3 15 -9 13 -12 11 -12 -6z"/>
<path d="M1760 3240 c-9 -6 -10 -10 -3 -10 6 0 15 5 18 10 8 12 4 12 -15 0z"/>
<path d="M1716 2607 c3 -10 9 -15 12 -12 3 3 0 11 -7 18 -10 9 -11 8 -5 -6z"/>
<path d="M2199 2602 c-8 -3 -29 -16 -47 -30 -84 -64 -92 -191 -17 -264 21 -20
24 -55 4 -42 -5 3 -6 -2 -3 -10 4 -12 -45 -190 -73 -262 -2 -6 5 -14 16 -17
12 -3 21 -2 21 1 0 11 164 1 178 -10 9 -8 11 -7 7 5 -6 13 -1 14 29 7 20 -4
38 -5 41 -1 2 4 24 6 49 4 26 -2 46 -2 46 0 0 2 -9 30 -20 63 -11 32 -21 69
-22 81 -2 13 -6 23 -10 23 -4 0 -8 6 -8 13 0 8 -8 39 -18 70 l-19 55 28 27
c29 26 49 79 49 125 0 32 -32 100 -56 122 -44 39 -123 57 -175 40z"/>
<path d="M1450 2406 c0 -2 7 -7 16 -10 8 -3 12 -2 9 4 -6 10 -25 14 -25 6z"/>
<path d="M3725 1720 c10 -11 20 -20 23 -20 3 0 -3 9 -13 20 -10 11 -20 20 -23
20 -3 0 3 -9 13 -20z"/>
<path d="M3510 779 c0 -5 5 -7 10 -4 6 3 10 8 10 11 0 2 -4 4 -10 4 -5 0 -10
-5 -10 -11z"/>
</g>
</svg>
